<svg xmlns="http://www.w3.org/2000/svg" viewBox="0 0 410 404">
  <path fill="#646cff" d="M399.6 59.5 215.7 388.1c-3.8 6.8-13.6 6.9-17.5.1L10.6 59.5c-4.2-7.3 2.1-16.2 10.4-14.7l184.4 33.1c1.2.2 2.5.2 3.7 0l179.9-33c8.3-1.5 14.6 7.4 10.6 14.6Z"/>
  <path fill="#ffea83" d="M292.9.6 156.8 27.3c-2.2.4-3.8 2.3-3.9 4.5l-8.4 141.8c-.2 3.3 2.8 5.8 6 5.1l37.9-8.8c3.5-.8 6.6 2.3 5.9 5.8l-11.3 55.2c-.7 3.6 2.6 6.7 6.1 5.6l23.4-7.1c3.5-1.1 6.9 2 6.2 5.6l-17.9 86.5c-1 4.8 5.4 7.4 8 3.2l1.7-2.7 111-221.6c1.8-3.5-1.3-7.5-5.1-6.8l-39 7.5c-3.7.7-6.9-2.8-5.8-6.4l25.4-88c1-3.6-2.1-6.9-5.7-6.2Z"/>
</svg>
